<?xml version="1.0" encoding="UTF-8"?>
<!DOCTYPE svg PUBLIC "-//W3C//DTD SVG 1.1//EN" "http://www.w3.org/Graphics/SVG/1.1/DTD/svg11.dtd">
<!-- Creator: CorelDRAW 2018 (64-Bit) -->
<svg xmlns="http://www.w3.org/2000/svg" xml:space="preserve" width="200mm" height="200mm" version="1.1" style="shape-rendering:geometricPrecision; text-rendering:geometricPrecision; image-rendering:optimizeQuality; fill-rule:evenodd; clip-rule:evenodd"
viewBox="0 0 20000 20000"
 xmlns:xlink="http://www.w3.org/1999/xlink">
 <defs>
  <style type="text/css">
   <![CDATA[
    .fil0 {fill:#00A6F4}
    .fil1 {fill:#052F4A}
   ]]>
  </style>
 </defs>
 <g id="Warstwa_x0020_1">
  <metadata id="CorelCorpID_0Corel-Layer"/>
  <path class="fil0" d="M16165.6 11852.1l2007.32 -4592.75c-4784.32,1459.73 0,0 -4784.32,1459.73l918.94 632.03c-1695.26,1586.28 -3955.48,2980.84 -6225.78,3587.61 -1347.68,360.18 -2899.88,671 -4251.9,182.87 -563.63,-203.5 -1067.47,-642.16 -1222.36,-1239.39 -210.41,-811.28 42.09,-1351.59 267.25,-2068.8 -398.01,224.83 -910.04,1505.9 -999.58,1978.49 -151.53,799.8 44.04,1686.57 744.2,2161.65 1409.05,956.1 3350.66,894.09 4965.37,616.65 2677.73,-460.11 6062.49,-1878.15 7996.3,-3825.53 584.56,1107.44 0,0 584.56,1107.44z"/>
  <path class="fil1" d="M8422.21 6209.6c-93.67,-1203.49 17.19,-1001.84 1693.56,-998.72 1485.37,2.78 1777.62,-258.83 1651.42,1000.34l-3344.98 -1.62zm-4191.57 3031.15c-268.23,-152.86 -273.7,-149.82 -400.38,-444.61l252.39 207.87c586.29,211.65 4257.81,568.88 4832.37,469.07 23.84,-1005.26 -111.25,-898.76 1200.75,-902.31 1194.27,-3.23 1226.21,-197.41 1204.95,900.45 297.92,-9.41 1777.7,-30.78 1975.74,-127.21 -1152.84,-858.66 0,0 -1152.84,-858.66l4762.57 -1338.61c66.31,-1073 -721.26,-932.88 -1491.94,-935.61 -696,-2.48 -2008.27,76.74 -2626.97,-11.33 -49.86,-771.69 124.73,-1268.33 -604.9,-1761.27 -440.97,-297.92 -1561.85,-201.58 -2113.92,-201.06 -590.3,0.55 -1611.52,-105.73 -2090.65,223.76 -715,491.72 -510.08,997.75 -579.29,1739.1 -915.49,56.19 -1980.22,8.53 -2912.43,9.3 -1485.05,1.2 -1289.7,281.57 -1279.35,1667.84 7.3,978.16 -0.08,1955.24 4.55,2933.08 4.81,1017.41 -174.24,1571.34 999.71,1932.08 1451.43,446.02 3509.9,-126.88 4884.91,-679.97 751.53,-302.3 3369.12,-1604.94 3857.81,-2200.93l-1710.57 121.89c-304.78,735.16 -285.99,685.32 -1127.38,687.4 -710.3,1.77 -999.6,46.23 -1208.57,-684.51 -811.89,-26.36 -4188.2,-231.19 -4676.56,-745.76z"/>
  <path class="fil1" d="M16198.57 13022.21l-752.3 -1437.27c-1814.95,1329.4 -2925.32,2127.88 -5191.8,2816.43 -1116.27,339.13 -2235.18,613.12 -3402.51,708.31 -1568.57,127.9 -2151.92,30.99 -3646.02,-331.3 -4.79,1005.87 743.84,982.41 1516.73,975.84l7238.1 -3.18c5258.22,-7.41 5117.15,460.8 5119.52,-2196.62 0.71,-809.32 9.1,-1620.78 -14.55,-2437.73l-867.17 1905.52z"/>
 </g>
</svg>
