<?xml version="1.0" encoding="UTF-8"?>
<!DOCTYPE svg PUBLIC "-//W3C//DTD SVG 1.1//EN" "http://www.w3.org/Graphics/SVG/1.1/DTD/svg11.dtd">
<!-- Creator: CorelDRAW 2018 (64-Bit) -->
<svg xmlns="http://www.w3.org/2000/svg" xml:space="preserve" width="350mm" height="120mm" version="1.1" style="shape-rendering:geometricPrecision; text-rendering:geometricPrecision; image-rendering:optimizeQuality; fill-rule:evenodd; clip-rule:evenodd"
viewBox="0 0 35000 12000"
 xmlns:xlink="http://www.w3.org/1999/xlink">
 <defs>
  <style type="text/css">
   <![CDATA[
    .fil2 {fill:#00A6F4}
    .fil0 {fill:#052F4A}
    .fil1 {fill:white}
   ]]>
  </style>
 </defs>
 <g id="Warstwa_x0020_1">
  <metadata id="CorelCorpID_0Corel-Layer"/>
  <path class="fil0" d="M6265.85 2889.66c-76.74,-985.93 14.08,-820.74 1387.41,-818.18 1216.86,2.28 1456.28,-212.04 1352.89,819.51l-2740.3 -1.33zm-3433.86 2483.21c-219.74,-125.23 -224.22,-122.74 -328.01,-364.24l206.77 170.29c480.31,173.39 3488.13,466.05 3958.82,384.28 19.53,-823.54 -91.14,-736.29 983.69,-739.2 978.38,-2.65 1004.55,-161.73 987.13,737.67 244.07,-7.7 1519.84,-1.4 1682.08,-80.4 -944.44,-703.44 -63.5,-23.81 -1007.94,-727.25l3901.64 -1096.63c54.33,-879.03 -590.88,-764.24 -1222.24,-766.48 -570.18,-2.03 -1645.23,62.87 -2152.09,-9.28 -40.85,-632.19 102.18,-1039.05 -495.56,-1442.88 -361.25,-244.07 -1279.51,-165.14 -1731.78,-164.72 -483.59,0.45 -1320.2,-86.61 -1712.72,183.31 -585.75,402.84 -417.87,817.39 -474.57,1424.73 -750,46.03 -1622.26,6.98 -2385.95,7.61 -1216.59,0.99 -1056.56,230.67 -1048.08,1366.34 5.98,801.34 -0.06,1601.8 3.73,2402.87 3.94,833.49 -142.74,1287.29 818.99,1582.82 1189.05,365.4 2875.41,-103.95 4001.86,-557.05 615.67,-247.66 2760.09,-1314.82 3160.43,-1803.07l-1401.35 99.85c-249.68,602.27 -234.29,561.44 -923.58,563.14 -581.9,1.45 -818.9,37.88 -990.1,-560.76 -665.12,-21.6 -3431.09,-189.4 -3831.17,-610.95z"/>
  <path id="_1" class="fil1" d="M6265.85 2889.66c-76.74,-985.93 14.08,-820.74 1387.41,-818.18 1216.86,2.28 1456.28,-212.04 1352.89,819.51l-2740.3 -1.33zm3575.99 -8.03c-40.85,-632.19 102.18,-1039.05 -495.56,-1442.88 -361.25,-244.07 -1279.51,-165.14 -1731.78,-164.72 -483.59,0.45 -1320.2,-86.61 -1712.72,183.31 -585.75,402.84 -417.87,817.39 -474.57,1424.73 -750,46.03 -1622.26,6.98 -2385.95,7.61 -1216.59,0.99 -1056.56,230.67 -1048.08,1366.34 5.98,801.34 -0.06,1601.8 3.73,2402.87 3.94,833.49 -142.74,1287.29 818.99,1582.82 1189.05,365.4 2875.41,-103.95 4001.86,-557.05 615.67,-247.66 2760.09,-1314.82 3160.43,-1803.07l-1401.35 99.85c-249.68,602.27 -234.29,561.44 -923.58,563.14 -581.9,1.45 -818.9,37.88 -990.1,-560.76 -665.12,-21.6 -3431.09,-189.4 -3831.17,-610.95 -219.74,-125.23 -224.22,-122.74 -328.01,-364.24l206.77 170.29c480.31,173.39 3488.13,466.05 3958.82,384.28 19.53,-823.54 -91.14,-736.29 983.69,-739.2 978.38,-2.65 1004.55,-161.73 987.13,737.67 244.07,-7.7 1519.84,-1.4 1682.08,-80.4 -944.44,-703.44 -63.5,-23.81 -1007.94,-727.25l3901.64 -1096.63c54.33,-879.03 -590.88,-764.24 -1222.24,-766.48 -570.18,-2.03 -1645.23,62.87 -2152.09,-9.28zm-3192.48 -516.87c-80.42,6.26 -104.89,56.62 -101.38,226.21l2180.63 1.06c4.81,-172.43 -21.58,-225.52 -90.35,-232.41 -104.3,-10.46 -253.88,-5.64 -443.94,0.49 -152.08,4.9 -328.61,10.59 -541.06,10.2 -201.75,-0.38 -370.89,-4.03 -517.28,-7.19 -206.08,-4.44 -364.56,-7.86 -486.62,1.64zm302.08 3537.03c99.36,347.45 251.77,346.54 607.46,344.41 29.63,-0.17 60.19,-0.37 94.36,-0.45 43.75,-0.1 84.69,-0.03 123.01,0.02 362.63,0.56 366.58,0.48 520.11,-369.76 45.18,-319.03 0,0 45.18,-319.03 7.38,-381.37 6.54,-445.01 -56.53,-446.23 -63.2,-1.22 -146.11,1.37 -245.12,4.45 -106.47,3.31 -231.21,7.21 -386.65,7.63 -104.46,0.28 -197.3,-0.28 -280.25,-0.77 -280.26,-1.68 -420.86,-2.53 -428.45,3.17 -0.42,0.31 3.29,763.93 6.88,776.56zm3502.28 -150.99c-37.84,18.42 -103.79,33.51 -188.92,45.9 27.12,91.89 9.68,195.16 -55.75,274.73 -187.89,229.15 -664.72,544.2 -1207.81,854.03 -771.07,439.9 -1697.27,886.13 -2072.15,1036.93 -656.88,264.22 -1500.42,534.04 -2334.03,650.07 -654.3,91.07 -1305.92,87.62 -1867.05,-84.81 -1056.78,-324.73 -1048.02,-787.41 -1033.05,-1578.43 1.73,-92.12 3.58,-189.76 3.12,-289.16 -1.71,-360.55 -1.42,-721.34 -1.14,-1082.1 0.34,-440.01 0.69,-880.07 -2.59,-1320.77 -0.89,-119.47 -3.8,-237.17 -6.45,-344.24 -2.52,-102.33 -4.82,-194.84 -4.88,-285.7 -0.68,-839.57 143.99,-1035.42 1358.24,-1036.4 242.93,-0.2 493.35,3.51 747.3,7.27 453,6.71 917.54,13.59 1353.88,-2.05 0.63,-35.29 0.96,-69.96 1.29,-103.96 4.82,-495.97 8.6,-882.3 588.13,-1280.86 401.16,-275.86 1072.41,-256.75 1593.65,-241.9 107.54,3.05 208.18,5.92 288.99,5.85 72.51,-0.06 167.08,-2.6 270.46,-5.35 521.71,-13.94 1253.06,-33.47 1628.9,220.46 609.78,411.97 612.85,805.68 617,1340.5 0.19,25.04 0.39,50.48 0.71,76.58 340.7,18.19 806.24,6.34 1220.61,-4.21 238.8,-6.08 461.06,-11.74 641.75,-11.1 63.26,0.22 130.06,-0.85 196.17,-1.92 135.05,-2.17 267.43,-4.3 387.3,3.1 563.37,34.83 987.24,220.63 938.15,1071.49 -3.11,128.04 -88.78,244.53 -218.52,280.92l-3304.27 928.73c63.9,40.97 193.78,132.9 491.28,354.31 44.99,28.72 82.88,69.81 107.96,121.31 72.48,148.85 10.57,328.3 -138.28,400.78z"/>
  <path class="fil0" d="M12636.46 8470.75l-616.3 -1177.45c-1486.86,1089.08 -2396.5,1743.21 -4253.27,2307.3 -914.48,277.82 -1831.13,502.29 -2787.44,580.26 -1285.02,104.79 -1762.92,25.39 -2986.93,-271.4 -3.92,824.03 609.38,804.82 1242.56,799.43l5929.66 -2.6c4307.69,-6.08 4192.12,377.5 4194.06,-1799.54 0.58,-663.02 7.45,-1327.79 -11.92,-1997.06l-710.42 1561.06z"/>
  <path id="_1_0" class="fil1" d="M12636.46 8470.75l-616.3 -1177.45c-1486.86,1089.08 -2396.5,1743.21 -4253.27,2307.3 -914.48,277.82 -1831.13,502.29 -2787.44,580.26 -1285.02,104.79 -1762.92,25.39 -2986.93,-271.4 -3.92,824.03 609.38,804.82 1242.56,799.43l5929.66 -2.6c4307.69,-6.08 4192.12,377.5 4194.06,-1799.54 0.58,-663.02 7.45,-1327.79 -11.92,-1997.06l-710.42 1561.06zm-351.46 -1315.73l332 634.28 456.83 -1003.83 0.9 0.41c45.87,-100.61 87.77,-388.75 205.74,-391.98 165.03,-4.52 328.97,-932.73 333.49,-767.7 15.65,540.68 45.94,2356.8 44.48,2896.11 -0.34,128.21 -0.71,256.37 -0.81,384.44 -0.04,56.97 -0.01,112.22 0.01,165.73 0.57,1062.88 0.82,1540.88 -603.51,1800.17 -402.11,172.53 -1052.54,163.16 -2234.45,146.13 -462.97,-6.67 -1010.5,-14.56 -1654.94,-13.66l-5927.27 2.6c-0.02,0 -0.03,0 -0.05,0l-31.2 0.27c-773.24,6.86 -1510.86,13.24 -1512.44,-1084.49 -1.29,-27.7 1.26,-56.04 8.11,-84.35 38.83,-160.51 200.43,-259.15 360.94,-220.32 599.17,145.29 1014.43,237.23 1429.58,279.26 411.3,41.64 837.01,35.04 1463.6,-16.06 463.46,-37.78 918.63,-111.36 1369.57,-209.33 462.21,-100.41 910.85,-223.24 1354.59,-358.04 901.69,-273.93 1574.5,-570.35 2203.24,-931 634.06,-363.7 1225.64,-794.02 1959.8,-1331.77l0.3 0.41c12,-8.77 24.8,-16.75 38.37,-23.84 146.26,-76.36 326.76,-19.7 403.12,126.56z"/>
  <g id="_2160167469872">
   <path class="fil0" d="M15610.46 7695.2l500.73 -3113.57c507.12,-6.1 1053.64,-60.03 1429.75,328.73 594.23,614.23 570.53,3141.24 -1930.48,2784.84zm-1214.58 888.92c1953.8,8.33 4010.06,322.98 4482.36,-2149.1 506.3,-2650.09 -1704.31,-2932.86 -3727.96,-2744.29 -89.36,897.84 -773.12,4610.58 -754.4,4893.39z"/>
   <path id="_1_1" class="fil1" d="M15610.46 7695.2l500.73 -3113.57c507.12,-6.1 1053.64,-60.03 1429.75,328.73 594.23,614.23 570.53,3141.24 -1930.48,2784.84zm-1214.58 888.92c1953.8,8.33 4010.06,322.98 4482.36,-2149.1 506.3,-2650.09 -1704.31,-2932.86 -3727.96,-2744.29 -89.36,897.84 -773.12,4610.58 -754.4,4893.39zm1970.85 -3708.3l-410.38 2551.78c380.63,16.74 679.04,-49.28 908.57,-169.62 269.98,-141.55 449.77,-363.71 558.59,-614.18 113.54,-261.32 151.1,-554.57 133.74,-824.05 -19.98,-310.17 -107.69,-573.59 -230.76,-700.8 -228.61,-236.3 -593.58,-249.08 -959.76,-243.13zm-1392.4 4015.66c-189.04,-3.73 -378.73,-7.48 -561.43,-8.44 -164.29,9.36 -305.54,-115.72 -315.85,-280.17 -11.78,-177.95 164.5,-1232.72 351.48,-2351.61 176.05,-1053.42 361.79,-2164.79 404.09,-2589.83l0.19 0.02c13.64,-140.1 125.19,-255.23 270.52,-268.38 1059.04,-98.69 2173.81,-70.58 2975.6,338.12 860.58,438.66 1357.79,1271.74 1073.45,2760.08 -472.62,2473.79 -2306.96,2437.56 -4198.05,2400.21z"/>
  </g>
  <g id="_2160167468656">
   <path class="fil0" d="M24794 6610.24c91.87,-454.42 665.63,-1156.86 1095.8,-747.51 232.49,221.25 28.22,528.18 -220.53,635.49 -250.03,107.85 -616.58,166.88 -875.27,112.02zm-54.5 660.01c908.95,-10.21 2455.34,-255.3 2079.03,-1582.35 -281.47,-992.61 -1936.33,-724 -2464.2,-40.55 -1113.09,1441.1 -623.92,3330.93 1389.17,2977.36 755.37,-132.68 738.36,-266.22 808.87,-1020.02 -398.74,155.44 -584.78,332.55 -1071.56,330.71 -459.37,-1.72 -691.75,-216 -741.31,-665.15z"/>
   <path id="_1_2" class="fil1" d="M24794 6610.24c91.87,-454.42 665.63,-1156.86 1095.8,-747.51 232.49,221.25 28.22,528.18 -220.53,635.49 -250.03,107.85 -616.58,166.88 -875.27,112.02zm-54.5 660.01c908.95,-10.21 2455.34,-255.3 2079.03,-1582.35 -281.47,-992.61 -1936.33,-724 -2464.2,-40.55 -1113.09,1441.1 -623.92,3330.93 1389.17,2977.36 755.37,-132.68 738.36,-266.22 808.87,-1020.02 -398.74,155.44 -584.78,332.55 -1071.56,330.71 -459.37,-1.72 -691.75,-216 -741.31,-665.15zm613.42 -1075.81c-34.02,35.75 -65.96,74.41 -95.18,114.59 105.06,-19.11 207.24,-49.14 293.17,-86.2 36.27,-15.65 70.46,-39.55 97.7,-68.17 20.9,-21.96 36.08,-44.41 42.12,-64.55 0.22,-0.72 0.88,-0.24 1.53,0.46l0.99 0.29c-1.32,-2.61 -4.47,-6.35 -9.7,-11.33 -24.89,-23.69 -46.04,-36.23 -63.76,-39.81 -25.58,-5.16 -58.07,2.89 -93.87,20.01 -56.96,27.24 -116.21,75.03 -173,134.71zm340.61 -102.99c-0.08,-0.19 -0.17,-0.39 -0.28,-0.59l-0.99 -0.29c1.04,1.1 2.07,2.75 1.27,0.88zm248.6 1321.92c-256.63,72.77 -529.51,114.35 -784.99,136 64.47,58.04 171.3,86.63 323.67,87.2 284.49,1.07 452,-78.45 651.49,-173.14 90.97,-43.19 187.56,-89.04 312.26,-137.65l0.04 0.09c41.55,-16.09 87.34,-23.13 134.72,-18.84 164.39,14.88 285.59,160.22 270.71,324.61l-7.69 83.12c-80.35,873.32 -95.53,1038.09 -1047.28,1205.26 -519.17,91.19 -955.53,47.08 -1305.75,-95.03 -374.88,-152.13 -647.81,-413.51 -817.41,-742.18 -163.67,-317.21 -227.16,-694.37 -189.2,-1091.73 47.93,-501.85 258.81,-1039.6 634.91,-1526.54 225.68,-292.19 608.88,-518.61 1022.61,-635.92 266.57,-75.59 549.35,-107.87 813.45,-85.04 282.04,24.4 547.42,111.76 759.72,275.73 182.9,141.25 321.68,334.72 393.42,587.73 45.05,158.87 66.81,308.71 68.39,449.89 4.4,392.88 -147.98,692.31 -392.61,919.44 -224.13,208.1 -522.19,346.75 -840.46,437z"/>
  </g>
  <g id="_2160167470256">
   <path class="fil0" d="M20096.85 6618.44c41.81,-465.89 645.82,-1134.79 1071.63,-763.46 250.94,218.84 37.97,513.8 -201.6,631.17 -258.73,126.75 -586.96,144.93 -870.03,132.29zm-30.98 765.26l-34.47 -107.29 481.17 -40.28c953.45,8.1 2184.4,-662.17 1512.24,-1771.11 -448,-739.13 -2014.9,-388.92 -2482.48,332.73 -923.32,1425 -528.43,3188.14 1543.9,2817.4 734.86,-131.47 690.09,-310.99 770.36,-1030.12 -398.79,135.97 -502.2,326.28 -1029.88,342.5 -359.67,11.05 -739.25,-149.69 -760.84,-543.83z"/>
   <path id="_1_3" class="fil1" d="M20096.85 6618.44c41.81,-465.89 645.82,-1134.79 1071.63,-763.46 250.94,218.84 37.97,513.8 -201.6,631.17 -258.73,126.75 -586.96,144.93 -870.03,132.29zm-30.98 765.26l-34.47 -107.29 481.17 -40.28c953.45,8.1 2184.4,-662.17 1512.24,-1771.11 -448,-739.13 -2014.9,-388.92 -2482.48,332.73 -923.32,1425 -528.43,3188.14 1543.9,2817.4 734.86,-131.47 690.09,-310.99 770.36,-1030.12 -398.79,135.97 -502.2,326.28 -1029.88,342.5 -359.67,11.05 -739.25,-149.69 -760.84,-543.83zm530.05 -1146.97c-18.26,20.94 -35.64,42.62 -52,64.78 106.7,-16.01 207.27,-42.35 291.71,-83.72 41.43,-20.3 81.53,-50.5 112.61,-86.15 14.44,-16.56 25.32,-32 30.9,-44.87 -2.03,-1.91 -4.54,-4.17 -7.54,-6.79 -24.5,-21.36 -47.25,-31.82 -67.86,-33.66 -34.82,-3.12 -77.79,10.73 -123.91,36.07 -64.49,35.42 -127.54,89.7 -183.91,154.34zm-59.36 1298.28l-77.27 6.47c90.83,64.32 224.58,91.35 359.22,87.22 274.21,-8.42 410.17,-79.29 562.86,-158.88 103.76,-54.08 213.46,-111.27 371.5,-165.76 42.26,-15.64 88.69,-21.96 136.53,-16.69 164.39,18.12 282.97,166.08 264.85,330.47 -9.95,89.12 -13.85,126.57 -17.49,161.71 -78.86,759.26 -100.68,969.25 -997.8,1129.74 -508.43,90.96 -931.93,65.11 -1273.13,-47.75 -402.12,-133.01 -691,-382.51 -872.41,-704.99 -174.97,-311.04 -244.54,-685.41 -214.66,-1082.6 35.14,-467.17 209.59,-971.15 512.79,-1439.09 131.01,-202.2 327.08,-377.93 557.63,-517.68 309.64,-187.67 687.76,-313.27 1052.2,-350.14 384.57,-38.9 763.02,20.25 1050.37,206.43 131.62,85.27 243.57,196.7 328.53,336.86 166.51,274.72 237.73,533.99 235.69,773.48 -2.09,247.72 -80.26,467.21 -212.06,656.61 -123.09,176.91 -294.1,326.53 -492.64,446.87 -371.04,224.89 -846.57,346.39 -1274.71,347.72z"/>
  </g>
  <g id="_2160167451056">
   <polygon class="fil0" points="22305.38,8486.3 22319.01,8570.6 23194.41,8563.51 23269.99,8465.6 24076.11,3511.36 23089.85,3523.06 "/>
   <path id="_1_4" class="fil1" d="M22023.7 8617.48l-13.63 -84.3 0.13 -0.02c-4.75,-29.9 -5.01,-61.03 -0.13,-92.56l783.73 -4958.53c19.78,-144.19 142.61,-256.08 292.53,-257.84l970.86 -11.52c21.93,-1.37 44.36,-0.34 66.97,3.34 163.09,26.53 273.79,180.27 247.26,343.36l-806.12 4954.24 -0.05 -0.01c-7.69,47.57 -27.02,93.95 -58.54,134.77l-75.58 97.91 -0.19 -0.15c-54.17,70.05 -138.79,115.42 -234.19,116.17l-865.16 7.01c-149.76,6.48 -283.83,-100.28 -307.89,-251.87zm281.68 -131.18l13.63 84.3 875.4 -7.09 75.58 -97.91 806.12 -4954.24 -986.26 11.7 -784.47 4963.24z"/>
  </g>
  <g id="_2160167449424">
   <path class="fil2" d="M32387.8 5874.01c1072.21,-298.6 835.83,1735.84 6.72,1998.55 -1093.78,346.6 -924.97,-1742.82 -6.72,-1998.55zm1667.44 1094.94c508.46,-2536.69 -2988.91,-2513.26 -3386.61,-194.73 -435.77,2540.46 2919.84,2523.45 3386.61,194.73z"/>
   <path id="_1_5" class="fil1" d="M32387.8 5874.01c1072.21,-298.6 835.83,1735.84 6.72,1998.55 -1093.78,346.6 -924.97,-1742.82 -6.72,-1998.55zm1667.44 1094.94c508.46,-2536.69 -2988.91,-2513.26 -3386.61,-194.73 -435.77,2540.46 2919.84,2523.45 3386.61,194.73zm-1337.54 -767.5c-41.94,-53.8 -122.09,-74.84 -250.21,-39.16 -290.48,80.9 -477.46,467.16 -522.47,839.36 -14.84,122.74 -13.57,239.96 5.07,341.1 15.7,85.13 42.95,157.09 82.33,207.05 46.36,58.83 133.91,80.53 271.87,36.82 264.83,-83.91 447.15,-475.74 492.57,-851.07 14.46,-119.55 13.7,-234.72 -4.02,-335.37 -14.76,-83.91 -39.59,-153.13 -75.14,-198.73zm1010.69 -1127.11c510.54,362.54 809.5,1012.71 620.99,1953.2 -209.28,1044.05 -935.28,1680.67 -1707.23,1891.47 -284.17,77.61 -574.74,97.71 -848.79,59.47 -283.14,-39.5 -549.73,-139.99 -776.16,-302.34 -503.6,-361.07 -805.33,-1011.08 -643.88,-1952.31 179.93,-1048.95 917.57,-1687.73 1707.24,-1896.93 287.11,-76.06 582.31,-95.14 861.31,-56.36 286.45,39.81 556.91,140.75 786.52,303.8z"/>
  </g>
  <g id="_2160167446128">
   <path class="fil2" d="M29333.63 5873.46l46.97 18.01c15.03,16.05 38.08,24.19 42.78,174.69 -15.36,1350.41 -870.13,2229.16 -1309.27,1641.89 -227.73,-304.54 -89.17,-1001.81 94.57,-1306.06 296.19,-490.46 546.56,-543.75 1124.95,-528.53zm-2494.93 4069.94c1170.68,378.22 2523.07,336.94 3013.5,-968.38 186.9,-497.48 596.86,-3010.79 691.4,-3668.43 -519.46,-289.54 -1612.18,-292.89 -2168.86,-94.88 -1421.96,505.79 -1810.86,2563.68 -950.6,3226.31 292.05,224.96 656.19,234.38 998.45,119.39 375.23,-126.09 447.64,-296.13 698.45,-537.82 -97.89,1417.71 -941.21,1484.05 -2099.24,1086.93l-183.1 836.88z"/>
   <path id="_1_6" class="fil1" d="M29423.38 6066.16c-15.36,1350.41 -870.13,2229.16 -1309.27,1641.89 -227.73,-304.54 -89.17,-1001.81 94.57,-1306.06 296.19,-490.46 546.56,-543.75 1124.95,-528.53l46.97 18.01c15.03,16.05 38.08,24.19 42.78,174.69zm-2584.68 3877.24c1170.68,378.22 2523.07,336.94 3013.5,-968.38 186.9,-497.48 596.86,-3010.79 691.4,-3668.43 -519.46,-289.54 -1612.18,-292.89 -2168.86,-94.88 -1421.96,505.79 -1810.86,2563.68 -950.6,3226.31 292.05,224.96 656.19,234.38 998.45,119.39 375.23,-126.09 447.64,-296.13 698.45,-537.82 -97.89,1417.71 -941.21,1484.05 -2099.24,1086.93l-183.1 836.88zm1947.75 -2638.05c177,-264.83 312.27,-661.36 334.92,-1134.65 -144.03,2.82 -254.61,16.65 -340.02,52.78 -108.12,45.74 -202.71,145.55 -316.03,333.2 -80.26,132.89 -150.13,367.44 -166.75,597.02 -11.51,158.97 1.53,302.51 55.77,375.05 24.96,33.39 47.27,53.22 66.59,60.95 2.09,0.57 4.17,1.16 6.26,1.78 26.98,8.02 66.44,-3.62 113.55,-31.57 81.49,-48.34 166.02,-135.32 245.71,-254.56zm66.97 3025.54c-640.48,205.81 -1395.81,123.8 -2087.21,-96.68 -156.46,-38.9 -254.75,-195.38 -220.48,-354.09l181.65 -830.24c2.63,-13.59 6.21,-27.16 10.83,-40.63 53.72,-156.62 224.24,-240.04 380.86,-186.32 516.4,177.08 950.34,255.67 1240.92,141.78 74.66,-29.26 141.67,-74.7 200.14,-138.54 -13.86,4.98 -28.03,9.93 -42.62,14.83 -220.4,74.04 -450.18,105.84 -673.11,79.18 -212.58,-25.41 -417.97,-102.87 -603.07,-245.44 -213.29,-164.3 -365.47,-390.68 -458.86,-653.23 -123.24,-346.48 -143.12,-759.24 -64.48,-1170.16 77.16,-403.12 250.33,-809.5 514.71,-1152.73 260.55,-338.26 609.4,-615.31 1042.43,-769.33 324.66,-115.48 804.47,-169.95 1266.08,-149.76 421.7,18.44 839.71,100.28 1129.93,256.03 115.88,54.49 187.92,179.83 168.94,313.22 -57.85,402.45 -234.12,1501.22 -405.93,2412.85 -111.36,590.85 -222.34,1107.14 -301.87,1318.86 -256.95,683.9 -720.69,1071.03 -1278.86,1250.4z"/>
  </g>
  <g id="_2160167446832">
   <path class="fil2" d="M12609.46 7512.16l1644.45 -3762.51c-3919.45,1195.85 -47.63,-18.52 -3967.08,1177.33l800.45 536.3c-1388.81,1299.53 -3240.45,2441.99 -5100.34,2939.07 -1104.06,295.07 -2375.67,549.7 -3483.29,149.82 -461.73,-166.72 -874.5,-526.08 -1001.39,-1015.35 -172.37,-664.63 -2.56,-1107.26 181.89,-1694.82 -326.06,184.19 -708.48,1233.68 -781.83,1620.83 -124.14,655.23 36.08,1381.69 609.67,1770.89 1154.33,783.27 2744.96,732.47 4067.77,505.18 2193.68,-376.94 4966.57,-1538.64 6550.81,-3133.98 478.89,907.24 0,0 478.89,907.24z"/>
   <path id="_1_7" class="fil1" d="M1684.15 5842c-326.06,184.19 -708.48,1233.68 -781.83,1620.83 -124.14,655.23 36.08,1381.69 609.67,1770.89 1154.33,783.27 2744.96,732.47 4067.77,505.18 2193.68,-376.94 4966.57,-1538.64 6550.81,-3133.98 478.89,907.24 0,0 478.89,907.24l1644.45 -3762.51c-3919.45,1195.85 -47.63,-18.52 -3967.08,1177.33l800.45 536.3c-1388.81,1299.53 -3240.45,2441.99 -5100.34,2939.07 -1104.06,295.07 -2375.67,549.7 -3483.29,149.82 -461.73,-166.72 -874.5,-526.08 -1001.39,-1015.35 -172.37,-664.63 -2.56,-1107.26 181.89,-1694.82zm12843.98 -1972.82l-1640.71 3753.96c-25.47,63.86 -72.92,119.32 -138.51,153.86 -146.26,77.01 -327.28,20.87 -404.29,-125.39l-294.3 -557.54c-735.44,662.96 -1661.82,1243.4 -2649.19,1715.76 -1245.71,595.96 -2590.8,1021.59 -3770.98,1224.38 -682.6,117.29 -1435.9,188.91 -2170.9,129.89 -753.64,-60.52 -1488.93,-258.39 -2114.84,-683.11 -329.27,-223.42 -545.44,-534.81 -665.38,-883.2 -129.31,-375.6 -145.67,-795.13 -70.85,-1190.04 46.28,-244.27 203.41,-726.26 394.05,-1121.49 144.34,-299.25 318.5,-563.45 504.16,-685.29 74.09,-54.55 172.24,-74.36 266.82,-44.91 157.92,49.18 246.06,217.08 196.88,375 -53.36,170.05 5.55,-19.51 -39.96,123.77 -153.46,483.04 -277.11,872.23 -138.42,1406.99 46.6,179.69 145.33,338.58 275.66,470.73 148.86,150.94 337.23,266.22 537.06,338.37 506.96,183.02 1060.34,215.51 1617.59,168.12 572.74,-48.72 1149.98,-182.46 1687.58,-326.14 873.52,-233.45 1744.68,-612.89 2563.87,-1084.95 769.05,-443.17 1492.62,-967.28 2130.18,-1528.77l-483.23 -323.76 0.12 -0.19c-55.39,-37.05 -98.8,-92.77 -119.65,-161.53 -47.89,-157.92 41.3,-324.77 199.22,-372.66 2058.57,-628.09 2118.33,-604.86 2178.07,-581.64 35.83,13.92 -71.12,-27.78 1775.22,-591.47 69.13,-24.68 147.44,-24.14 220.04,7.5 151.44,66.01 220.7,242.31 154.69,393.75z"/>
  </g>
 </g>
</svg>
