<?xml version="1.0" encoding="UTF-8"?>
<!DOCTYPE svg PUBLIC "-//W3C//DTD SVG 1.1//EN" "http://www.w3.org/Graphics/SVG/1.1/DTD/svg11.dtd">
<!-- Creator: CorelDRAW 2018 (64-Bit) -->
<svg xmlns="http://www.w3.org/2000/svg" xml:space="preserve" width="350mm" height="120mm" version="1.1" style="shape-rendering:geometricPrecision; text-rendering:geometricPrecision; image-rendering:optimizeQuality; fill-rule:evenodd; clip-rule:evenodd"
viewBox="0 0 35000 12000"
 xmlns:xlink="http://www.w3.org/1999/xlink">
 <defs>
  <style type="text/css">
   <![CDATA[
    .fil0 {fill:#FEFEFE}
    .fil2 {fill:#08234F}
    .fil1 {fill:#4AAA28}
   ]]>
  </style>
 </defs>
 <g id="Warstwa_x0020_1">
  <metadata id="CorelCorpID_0Corel-Layer"/>
  <rect class="fil0" x="500" y="499.99" width="33999.99" height="11000" rx="996.15" ry="1004.22"/>
  <path class="fil1" d="M32387.8 5874.01c1072.21,-298.6 835.83,1735.84 6.72,1998.55 -1093.78,346.6 -924.97,-1742.82 -6.72,-1998.55zm1667.44 1094.94c508.46,-2536.69 -2988.91,-2513.26 -3386.61,-194.73 -435.77,2540.46 2919.84,2523.45 3386.61,194.73z"/>
  <path class="fil1" d="M12609.46 7512.16l1644.45 -3762.51c-3919.45,1195.85 0,0 -3919.45,1195.85l752.82 517.78c-1388.81,1299.53 -3240.45,2441.99 -5100.34,2939.07 -1104.06,295.07 -2375.67,549.7 -3483.29,149.82 -461.73,-166.72 -874.5,-526.08 -1001.39,-1015.35 -172.37,-664.63 34.49,-1107.26 218.94,-1694.82 -326.06,184.19 -745.53,1233.68 -818.88,1620.83 -124.14,655.23 36.08,1381.69 609.67,1770.89 1154.33,783.27 2744.96,732.47 4067.77,505.18 2193.68,-376.94 4966.57,-1538.64 6550.81,-3133.98 478.89,907.24 0,0 478.89,907.24z"/>
  <path class="fil1" d="M29333.63 5873.46l46.97 18.01c15.03,16.05 38.08,24.19 42.78,174.69 -15.36,1350.41 -870.13,2229.16 -1309.27,1641.89 -227.73,-304.54 -89.17,-1001.81 94.57,-1306.06 296.19,-490.46 546.56,-543.75 1124.95,-528.53zm-2494.93 4069.94c1170.68,378.22 2523.07,336.94 3013.5,-968.38 186.9,-497.48 596.86,-3010.79 691.4,-3668.43 -519.46,-289.54 -1612.18,-292.89 -2168.86,-94.88 -1421.96,505.79 -1810.86,2563.68 -950.6,3226.31 292.05,224.96 656.19,234.38 998.45,119.39 375.23,-126.09 447.64,-296.13 698.45,-537.82 -97.89,1417.71 -941.21,1484.05 -2099.24,1086.93l-183.1 836.88z"/>
  <path class="fil2" d="M6265.85 2889.66c-76.74,-985.93 14.08,-820.74 1387.41,-818.18 1216.86,2.28 1456.28,-212.04 1352.89,819.51l-2740.3 -1.33zm-3433.86 2483.21c-219.74,-125.23 -224.22,-122.74 -328.01,-364.24l206.77 170.29c480.31,173.39 3488.13,466.05 3958.82,384.28 19.53,-823.54 -91.14,-736.29 983.69,-739.2 978.38,-2.65 1004.55,-161.73 987.13,737.67 244.07,-7.7 1456.34,-25.21 1618.58,-104.21 -944.44,-703.44 0,0 -944.44,-703.44l3901.64 -1096.63c54.33,-879.03 -590.88,-764.24 -1222.24,-766.48 -570.18,-2.03 -1645.23,62.87 -2152.09,-9.28 -40.85,-632.19 102.18,-1039.05 -495.56,-1442.88 -361.25,-244.07 -1279.51,-165.14 -1731.78,-164.72 -483.59,0.45 -1320.2,-86.61 -1712.72,183.31 -585.75,402.84 -417.87,817.39 -474.57,1424.73 -750,46.03 -1622.26,6.98 -2385.95,7.61 -1216.59,0.99 -1056.56,230.67 -1048.08,1366.34 5.98,801.34 -0.06,1601.8 3.73,2402.87 3.94,833.49 -142.74,1287.29 818.99,1582.82 1189.05,365.4 2875.41,-103.95 4001.86,-557.05 615.67,-247.66 2760.09,-1314.82 3160.43,-1803.07l-1401.35 99.85c-249.68,602.27 -234.29,561.44 -923.58,563.14 -581.9,1.45 -818.9,37.88 -990.1,-560.76 -665.12,-21.6 -3431.09,-189.4 -3831.17,-610.95z"/>
  <path class="fil2" d="M12636.46 8470.75l-616.3 -1177.45c-1486.86,1089.08 -2396.5,1743.21 -4253.27,2307.3 -914.48,277.82 -1831.13,502.29 -2787.44,580.26 -1285.02,104.79 -1762.92,25.39 -2986.93,-271.4 -3.92,824.03 609.38,804.82 1242.56,799.43l5929.66 -2.6c4307.69,-6.08 4192.12,377.5 4194.06,-1799.54 0.58,-663.02 7.45,-1327.79 -11.92,-1997.06l-710.42 1561.06z"/>
  <path class="fil2" d="M15610.46 7695.2l500.73 -3113.57c507.12,-6.1 1053.64,-60.03 1429.75,328.73 594.23,614.23 570.53,3141.24 -1930.48,2784.84zm-1214.58 888.92c1953.8,8.33 4040.48,330.92 4512.78,-2141.16 506.3,-2650.09 -1734.73,-2940.8 -3758.38,-2752.23 -89.36,897.84 -773.12,4610.58 -754.4,4893.39z"/>
  <path class="fil2" d="M24794 6610.24c91.87,-454.42 665.63,-1156.86 1095.8,-747.51 232.49,221.25 28.22,528.18 -220.53,635.49 -250.03,107.85 -616.58,166.88 -875.27,112.02zm-54.5 660.01c908.95,-10.21 2502.96,-202.38 2126.65,-1529.43 -281.47,-992.61 -1983.95,-776.92 -2511.82,-93.47 -1113.09,1441.1 -623.92,3330.93 1389.17,2977.36 755.37,-132.68 738.36,-266.22 808.87,-1020.02 -398.74,155.44 -584.78,332.55 -1071.56,330.71 -459.37,-1.72 -691.75,-216 -741.31,-665.15z"/>
  <path class="fil2" d="M20096.85 6618.44c41.81,-465.89 645.82,-1134.79 1071.63,-763.46 250.94,218.84 37.97,513.8 -201.6,631.17 -258.73,126.75 -586.96,144.93 -870.03,132.29zm-30.98 765.26l-34.47 -107.29 481.17 -40.28c953.45,8.1 2184.4,-662.17 1512.24,-1771.11 -448,-739.13 -2014.9,-388.92 -2482.48,332.73 -923.32,1425 -528.43,3188.14 1543.9,2817.4 734.86,-131.47 690.09,-310.99 770.36,-1030.12 -398.79,135.97 -502.2,326.28 -1029.88,342.5 -359.67,11.05 -739.25,-149.69 -760.84,-543.83z"/>
  <polygon class="fil2" points="22305.38,8486.3 22319.01,8570.6 23194.41,8563.51 23269.99,8465.6 24076.11,3511.36 23089.85,3523.06 "/>
 </g>
</svg>
